<svg xmlns="http://www.w3.org/2000/svg" xmlnsSvgjs="http://svgjs.com/svgjs" xmlnsXlink="http://www.w3.org/1999/xlink" width="288" height="288"><svg xmlns="http://www.w3.org/2000/svg" width="288" height="288" version="1.0" viewBox="0 0 946 994"><g fill="#39bdc8" class="color000 svgShape" transform="matrix(.1 0 0 -.1 0 994)"><path d="M8452 7783c-89-42-161-82-159-88 4-12 84-23 185-24l72-1 0-29c0-23 6-31 36-42l35-14-127-162c-71-89-129-161-130-160-7 7-62 232-58 236 2 3 39 5 82 6 42 1 86 6 97 13 16 9-7 11-113 12l-134 0 7-27c3-16 23-82 44-148l39-120-69-3c-79-3-78-2-54-92 8-30 15-58 15-62 0-4-36-10-80-14-91-8-88-2-70-108l9-59-39-50c-45-56-48-67-21-67 11 0 36 19 55 44l36 43 87 7c48 3 89 9 91 11 3 3-2 36-10 74-9 39-13 73-10 76 3 3 32 3 63-1 89-10 91-8 69 77-11 40-18 74-17 75 1 1 70-2 152-6 83-4 152-6 154-4 12 11-46 254-60 254-12 0-12-77 0-82 5-1 11-28 12-58l4-55-112-3c-62-1-113 0-113 4 0 5 194 244 242 299 6 6 19-2 36-23 25-30 30-32 56-22 16 6 30 9 31 8 1-2 19-48 40-103 67-177 77-173 93 38 7 89 12 171 12 183 0 32-42 46-113 38l-60-7 28 37 27 36-46 0c-32 0-48-5-52-15-11-28-21-15-34 46-12 54-41 109-58 109-4 0-80-35-170-77zm-169-628c-32-40-43-44-43-16 0 11-3 26-6 35-5 13 2 16 35 16l42 0-28-35zm77-14c0-5 3-23 6-40l7-31-47 0-47 0 32 40c31 38 49 50 49 31zm-217-162c-26-33-48-57-50-52-1 4-6 32-11 61l-9 52 59 0 59 0-48-61zm98-80c-14-4-46-7-69-8l-44-1 53 62 54 61 16-54 17-54-27-6zM5373 7520c-144-10-269-20-278-22-14-2-10-12 22-47l39-45 278 35 278 35 32-50c18-28 67-108 110-177l78-126 34 10c32 10 33 12 21 31-8 12-62 101-122 199l-108 177-61-1c-33-1-179-10-323-19z" class="color000 svgShape"/><path d="M5455 7408c-121-16-222-32-225-34-2-3 15-23 38-46l41-42 213 38c117 22 214 40 216 41 7 6-43 75-53 74-5-1-109-15-230-31zM5563 7301c-106-20-193-39-193-43 0-3 11-20 25-36l25-29 185 46c102 25 185 49 185 52 0 4-8 16-17 26-18 20-20 19-210-16zM5940 7311c0-5 23-48 51-95 29-48 50-88 48-90-2-2-49-16-104-31-224-60-216-56-192-89 12-16 18-16 107-2 52 8 203 31 335 51 286 42 297 44 293 56-2 5-79 54-172 109l-168 100-99 0c-54 0-99-4-99-9zM5650 7218c-85-22-157-41-159-44-3-3 7-16 21-31l27-26 133 37c73 20 141 40 151 42 9 3 17 9 17 14 0 4-8 17-17 28-18 20-19 19-173-20z" class="color000 svgShape"/><path d="M5716 7136c-61-18-111-37-113-42-2-6 7-20 20-32l24-22 119 36c65 20 122 40 126 43 14 12-22 51-45 50-12-1-71-16-131-33zM6290 7048c-52-10-188-37-301-58l-207-39-168-107c-93-59-173-110-177-114-5-4 22-166 58-361l66-353-131-261-132-260 142 140c78 77 187 188 242 248l101 107 13 140 14 140 104 152 103 153 131 3 131 3 10 32c38 120 131 437 131 446 0 14-15 13-130-11z" class="color000 svgShape"/><path d="M4917 6533 c-112 -170 -268 -406 -346 -525 -79 -120 -146 -218 -150
-218 -7 0 -71 104 -71 117 0 4 22 64 49 132 42 106 48 128 38 150 -6 14 -13
29 -16 33 -10 12 -404 -611 -491 -776 -80 -152 -82 -160 -64 -173 10 -8 108
-59 217 -114 l198 -100 167 46 c92 25 182 51 201 57 37 11 14 -30 293 548 167
348 162 333 233 640 73 314 73 315 81 308 3 -3 -20 -151 -51 -328 -54 -312
-58 -327 -112 -459 -131 -321 -251 -621 -248 -621 2 0 70 38 152 85 l149 84
158 298 159 298 -37 355 c-21 195 -39 362 -42 370 -3 13 -223 100 -253 100 -5
0 -102 -138 -214 -307z" class="color000 svgShape"/><path d="M4525 6814c-11-6-42-24-70-41-47-29-57-31-170-35l-120-5-357-142-357-142-70-78-71-79-94-7-94-7-608-361-609-362-18-53c-14-44-15-60-6-97 6-25 14-45 17-45 3 0 50 24 106 54 103 55 206 100 206 90 0-3-8-34-17-70-9-35-14-66-11-70 18-17 54 17 118 111 57 85 70 112 70 144 0 22 5 41 13 43 6 3 226 51 488 108l476 103 47 89 47 88 125 0 125 0 376 110c207 61 380 107 384 103 4-5 34-45 67-91l61-83 250 352c138 194 249 354 246 357-2 3-123 10-267 16-188 8-268 8-283 0zm-355-214c8-5 12-11 10-13-10-8-411-139-415-135-7 6 347 156 370 157 11 0 27-3 35-9zm-1015-390c3-5-101-62-232-126-250-122-313-151-301-139 12 13 502 274 515 274 6 1 15-3 18-9zM7890 6764c-8-8-58-38-113-65-90-46-131-58-455-135l-357-85-65-64-65-64-90 24-89 25-366-42c-201-23-367-43-368-44-2-1-9-46-16-98-11-88-11-96 4-96 10 0 100 16 200 36 101 19 187 31 191 27 5-5-82-31-193-58-110-28-207-56-214-63-8-7-14-28-14-45 0-26-20-54-110-156-60-69-108-126-107-127 2-2 234 55 517 126 495 125 518 132 588 175l73 45 122 0 122 0 347 229 348 230 57-15c31-8 59-13 63-12 4 2 51 57 105 123l97 120-38 6c-116 19-161 20-174 3zm-390-223c0-5-12-12-27-15-16-4-103-28-196-53-127-35-170-44-179-35-6 6-10 13-7 15 3 4 379 93 402 96 4 1 7-3 7-8z" class="color000 svgShape"/><path d="M7758 6493c-13-16-101-122-194-238-92-115-194-241-225-280-44-53-55-73-47-83 6-7 15-11 19-10 4 2 120 142 258 313 232 287 257 324 220 325-3 0-17-12-31-27zM3611 5063c-80-51-146-95-148-96-1-2 47-31 107-65l110-62 303 0 302 0 142 88c78 48 142 89 142 92 0 3-6 13-13 23-13 16-21 14-140-38-120-54-128-56-164-45-30 10-279 109-462 183l-35 14-144-94z" class="color000 svgShape"/><path d="M4440 4890 l-133 -100 -91 -1 c-50 0 -199 -4 -331 -9 l-240 -8 -122
74 c-68 41 -125 74 -127 74 -12 0 -311 -199 -309 -206 1 -4 102 -43 225 -85
l224 -77 377 72 377 71 154 140 c137 123 165 155 137 155 -4 0 -68 -45 -141
-100z" class="color000 svgShape"/><path d="M4526 4851c-44-47-107-114-139-149l-60-63-414-89-413-89-252 95c-138 52-256 94-263 94-10 0-448-279-467-298-4-4 68-42 160-84 92-42 281-129 421-194l254-118 391 60 391 61 395 183c217 100 397 184 399 186 6 5-303 487-314 490-6 1-46-37-89-85zM4815 4308c-60-27-200-91-310-140-110-50-234-106-275-125l-74-34 194-194 193-193 106-29c93-26 106-32 109-52 2-13 0-27-6-33-5-5-98 5-237 27l-228 35-474-305-475-305-72 44-73 43-204-186c-170-154-201-187-182-189 20-3 413 103 2123 571l305 83 37 53 37 53-18 46c-10 26-78 202-152 392-73 190-144 377-159 415-15 39-34 71-41 72-8 1-63-21-124-49zm-482-901c15-10-14-23-199-84-120-40-213-68-208-63 12 12 355 158 375 159 8 1 23-5 32-12zM2307 4031c-218-220-254-260-334-381l-90-135-214-63-214-63-238-305c-132-167-243-304-248-304-5 0-38 15-72 32-34 18-65 34-69 36-3 2-27-27-51-65-24-37-117-178-206-313-145-221-159-246-144-258 9-6 20-12 23-12 4 0 141 88 306 196 164 109 414 272 554 364 140 92 369 242 509 334 140 93 309 200 375 238 67 39 211 123 321 187 110 64 316 184 457 266 142 83 257 152 258 155 0 6-162 88-466 235l-212 103-245-247zm223 59c18-11 33 2-179-169-96-78-176-139-180-135-3 3 44 51 104 107 61 56 135 126 165 154 57 55 65 59 90 43zm-1000-835c0-2-52-47-115-100-117-99-161-120-89-42 137 148 144 154 174 149 17-2 30-6 30-7z" class="color000 svgShape"/><path d="M3506 3767l-45-63 34-234c19-129 35-242 35-251 0-8-42-50-94-93-112-92-120-100-109-119 6-12 36 5 143 77l135 91-3 45c-1 25-9 153-17 285-8 132-16 259-17 283-1 23-5 42-9 42-5 0-28-28-53-63zM827 3686l-18-84 131-243c71-134 130-247 130-251 0-5-27-63-60-129-40-79-59-127-55-140 4-10 10-19 14-19 9 0 181 271 181 286 0 13-294 664-300 664-3 0-14-38-23-84z" class="color000 svgShape"/><path d="M3429 3607c-8-12-25-36-37-52l-22-30 45-169c25-93 45-171 45-174 0-3 10 4 23 16l23 22-27 201c-15 110-28 202-30 204-2 1-11-7-20-18zM810 3444l-13-66 93-136c133-195 126-187 139-163 6 11 11 25 11 31 0 15-203 400-211 400-4 0-12-30-19-66zM3342 3423l-24-35 47-123c34-89 51-122 61-118 8 3 14 13 14 22 0 18-66 280-72 286-2 2-14-12-26-32zM3291 3305l-20-27 44-89c25-49 49-89 54-89 29 0 26 30-9 123-20 53-39 100-42 103-3 3-15-7-27-21zM810 3270c-9-33-8-45 2-58 47-60 172-208 178-210 4-2 10 4 14 13 4 11-27 65-85 153-51 75-93 139-95 141-1 1-8-16-14-39zM3260 3188c-10-22-7-33 20-82 31-54 33-56 50-41 18 16 17 19-12 73-41 76-45 79-58 50zM812 3128c-9-32-6-36 67-110 41-43 79-78 82-78 4 0 10 7 13 16 4 11-19 47-70 110-42 52-78 94-80 94-2 0-7-15-12-32zM826 2994c-4-15-6-27-4-28 2-1 26-24 55-50 51-47 52-47 63-26 11 20 7 28-41 76-29 30-56 54-60 54-4 0-10-12-13-26z" class="color000 svgShape"/></g></svg></svg>