<?xml version="1.0" standalone="no"?>
<!DOCTYPE svg PUBLIC "-//W3C//DTD SVG 20010904//EN"
 "http://www.w3.org/TR/2001/REC-SVG-20010904/DTD/svg10.dtd">
<svg version="1.0" xmlns="http://www.w3.org/2000/svg"
 width="946.000000pt" height="994.000000pt" viewBox="0 0 946.000000 994.000000"
 preserveAspectRatio="xMidYMid meet">

<g transform="translate(0.000000,994.000000) scale(0.100000,-0.100000)"
fill="#000000" stroke="none">
<path d="M812 7836 c-10 -14 -25 -52 -32 -85 -13 -60 -25 -76 -36 -46 -4 10
-20 15 -51 15 l-45 0 27 -36 28 -37 -60 7 c-71 8 -113 -6 -113 -38 0 -12 5
-94 12 -183 16 -211 26 -215 93 -38 21 55 39 101 40 103 1 1 15 -2 31 -8 26
-10 31 -8 56 22 17 21 30 29 36 23 48 -55 242 -294 242 -299 0 -4 -51 -5 -112
-4 l-113 3 4 55 c1 30 7 57 12 58 12 5 12 82 0 82 -14 0 -72 -243 -60 -254 2
-2 72 0 154 4 83 4 151 7 152 6 1 -1 -6 -34 -16 -74 -12 -46 -15 -74 -9 -78 5
-4 41 -3 80 0 64 7 69 6 65 -11 -15 -51 -30 -134 -25 -138 3 -3 44 -9 92 -12
l86 -6 36 -43 c19 -25 44 -44 55 -44 26 0 25 6 -21 66 -39 52 -39 52 -30 111
18 105 21 99 -70 107 -44 4 -80 10 -80 14 0 4 7 32 15 62 24 90 25 89 -54 92
l-69 3 39 120 c21 66 41 132 44 148 l7 27 -134 0 c-105 -1 -129 -3 -113 -12
11 -6 55 -13 98 -14 43 -1 80 -3 82 -6 3 -3 -53 -229 -59 -235 -1 -1 -59 71
-129 160 -135 170 -132 163 -74 181 11 4 17 16 17 36 l0 30 73 1 c100 1 180
12 184 24 3 9 -309 165 -329 165 -4 0 -15 -11 -26 -24z m414 -662 c-3 -9 -6
-24 -6 -35 0 -28 -11 -24 -43 16 l-28 35 42 0 c33 0 40 -3 35 -16z m-77 -64
l32 -40 -46 0 c-25 0 -45 4 -45 9 0 23 13 71 20 71 3 0 21 -18 39 -40z m234
-67 c2 -5 -1 -35 -7 -67 l-11 -59 -48 61 -47 61 47 4 c27 2 51 4 55 5 4 1 9
-1 11 -5z m-86 -151 c-18 -2 -48 1 -68 5 l-36 8 15 54 16 54 52 -59 53 -59
-32 -3z"/>
<path d="M3582 7343 c-100 -165 -118 -199 -104 -205 46 -18 56 -9 137 124 44
73 92 151 106 173 l26 42 279 -35 278 -35 38 43 c21 24 37 44 35 46 -4 4 -592
44 -643 44 -30 0 -37 -9 -152 -197z"/>
<path d="M3742 7404 c-13 -20 -22 -37 -20 -39 2 -1 99 -19 216 -40 l213 -39
42 42 c22 23 39 43 37 46 -3 2 -97 16 -210 30 -113 15 -216 29 -230 31 -20 4
-29 -2 -48 -31z"/>
<path d="M3680 7309 c-7 -11 -10 -22 -8 -23 2 -2 85 -23 186 -48 l182 -46 25
30 c14 16 25 33 25 36 0 7 -350 73 -382 72 -10 0 -22 -9 -28 -21z"/>
<path d="M3150 7219 c-91 -54 -166 -103 -168 -108 -4 -12 -6 -12 388 -71 314
-47 336 -50 347 -33 24 32 32 28 -192 88 -55 15 -102 29 -104 31 -2 2 19 42
48 90 28 47 51 90 51 95 0 5 -46 9 -102 8 l-103 -1 -165 -99z"/>
<path d="M3633 7233 c-9 -13 -14 -26 -11 -28 3 -3 71 -24 152 -47 l147 -41 27
26 c14 15 24 28 21 31 -2 3 -75 22 -162 44 l-158 39 -16 -24z"/>
<path d="M3576 7148 c-9 -12 -12 -25 -8 -29 4 -3 61 -23 127 -42 l119 -36 23
21 c13 12 22 26 20 31 -3 10 -218 76 -249 77 -9 0 -24 -10 -32 -22z"/>
<path d="M3040 7060 c0 -7 22 -85 49 -174 27 -88 59 -193 71 -233 l21 -72 131
-3 130 -3 104 -152 104 -151 14 -141 13 -141 101 -107 c55 -60 165 -171 243
-248 l142 -140 -132 260 -133 259 67 355 c36 194 63 357 58 361 -4 4 -84 55
-176 114 l-168 107 -287 54 c-158 30 -302 57 -319 61 -23 5 -33 3 -33 -6z"/>
<path d="M4192 6796 c-65 -23 -114 -47 -116 -56 -3 -8 -21 -175 -42 -370 l-37
-355 159 -298 159 -299 149 -84 c82 -47 150 -83 151 -82 2 2 -33 91 -77 198
-44 107 -112 276 -153 375 l-73 181 -57 323 c-31 178 -54 326 -51 329 8 7 8 6
81 -308 76 -327 43 -246 403 -991 83 -174 92 -187 123 -197 19 -6 109 -32 201
-57 l167 -46 198 100 c109 55 207 106 217 114 18 13 16 20 -59 163 -84 160
-486 798 -495 786 -4 -4 -11 -19 -17 -33 -10 -22 -4 -44 38 -150 27 -68 49
-128 49 -132 0 -13 -64 -117 -71 -117 -4 0 -71 98 -150 218 -458 697 -550 832
-567 831 -9 -1 -68 -20 -130 -43z"/>
<path d="M4647 6814 c-141 -6 -260 -13 -262 -16 -3 -3 108 -163 246 -357 l250
-353 61 84 c33 46 63 86 67 91 4 4 177 -42 384 -103 l376 -110 125 0 125 0 47
-89 c38 -71 53 -90 73 -94 34 -5 911 -196 934 -203 12 -4 17 -16 17 -45 0 -32
13 -58 70 -144 62 -92 100 -128 117 -111 3 3 -2 34 -11 70 -9 36 -16 67 -16
70 0 10 105 -36 206 -90 56 -30 103 -54 106 -54 3 0 11 20 17 45 9 37 8 53 -6
97 l-18 53 -150 89 c-82 49 -356 212 -609 362 l-458 272 -94 7 -94 7 -70 78
-71 78 -357 143 -357 142 -125 6 c-122 6 -126 7 -180 42 -30 19 -62 37 -70 40
-8 2 -131 0 -273 -7z m870 -281 c101 -43 183 -80 183 -83 0 -5 -409 128 -420
137 -7 6 22 23 40 23 8 0 97 -35 197 -77z m1062 -447 c138 -73 255 -136 258
-140 13 -12 -38 10 -167 74 -69 35 -180 89 -248 121 -72 34 -121 63 -117 69 3
5 10 10 14 10 4 0 121 -60 260 -134z"/>
<path d="M1436 6766 l-78 -11 97 -120 c53 -66 101 -121 105 -123 4 -1 32 4 63
12 l57 15 348 -230 347 -229 121 0 122 0 73 -45 c71 -43 95 -50 589 -175 283
-71 515 -128 517 -126 2 1 -47 58 -107 127 -91 102 -110 129 -110 156 0 17 -6
38 -13 45 -8 7 -104 35 -215 63 -111 27 -198 53 -193 58 4 4 90 -8 191 -27
100 -20 190 -36 200 -36 16 0 16 7 4 97 -8 53 -15 97 -16 98 -2 1 -167 20
-368 43 l-365 42 -90 -24 -90 -25 -65 64 -65 64 -357 85 c-324 77 -365 89
-455 135 -55 27 -105 56 -112 65 -15 18 -24 18 -135 2z m744 -267 c102 -23
187 -43 189 -45 3 -3 -1 -10 -7 -16 -8 -8 -59 2 -207 43 -107 30 -195 58 -195
62 0 5 8 6 18 3 9 -3 100 -24 202 -47z"/>
<path d="M1653 6512 c-8 -5 67 -106 238 -317 138 -171 254 -311 258 -313 4 -1
13 3 19 10 8 10 -36 70 -180 248 -346 428 -310 388 -335 372z"/>
<path d="M5509 5078 c-107 -43 -226 -90 -265 -104 l-71 -26 -69 30 c-38 16
-95 42 -127 57 -56 27 -58 27 -72 9 -8 -11 -14 -21 -14 -24 0 -3 64 -44 142
-92 l142 -88 302 0 303 0 110 62 109 62 -97 64 c-53 35 -120 78 -148 96 l-50
34 -195 -80z"/>
<path d="M4866 4982 c-2 -4 65 -71 150 -147 l154 -140 377 -71 377 -72 224 77
c123 42 224 81 224 86 0 8 -264 186 -298 201 -6 3 -67 -28 -135 -69 l-124 -75
-240 8 c-132 5 -281 9 -331 9 l-91 1 -133 100 c-73 55 -137 100 -141 100 -4 0
-10 -4 -13 -8z"/>
<path d="M4806 4888 c-181 -284 -269 -424 -273 -433 -2 -7 18 -22 47 -34 27
-12 90 -40 138 -62 48 -23 204 -95 347 -161 l260 -121 375 -58 c206 -33 387
-58 402 -57 35 4 848 381 840 390 -18 18 -456 298 -467 298 -7 0 -125 -43
-263 -94 l-251 -95 -414 89 -413 88 -65 69 c-36 37 -99 105 -140 149 -41 45
-77 82 -82 83 -4 1 -22 -23 -41 -51z"/>
<path d="M4501 4338 c-5 -13 -50 -129 -100 -258 -272 -703 -250 -642 -232
-673 46 -80 43 -79 386 -172 176 -48 714 -194 1195 -326 481 -131 887 -239
902 -239 30 0 36 -6 -286 287 l-99 91 -73 -44 -72 -44 -475 305 -474 305 -228
-35 c-139 -22 -232 -32 -237 -27 -6 6 -8 20 -6 33 3 19 17 26 108 51 l105 29
192 192 c106 105 189 195 185 199 -9 9 -763 348 -774 348 -5 0 -12 -10 -17
-22z m845 -994 c99 -41 183 -80 188 -84 5 -5 -88 23 -208 63 -185 61 -214 74
-199 84 9 7 22 13 29 13 6 0 92 -34 190 -76z"/>
<path d="M6568 4113 c-186 -91 -338 -169 -338 -172 0 -3 17 -15 38 -27 20 -11
213 -123 427 -248 215 -126 445 -260 513 -300 116 -67 501 -316 1393 -902 212
-139 392 -256 400 -259 8 -3 22 0 32 7 16 12 3 35 -144 258 -89 135 -181 276
-206 313 -24 38 -48 67 -51 65 -4 -2 -35 -18 -69 -36 -34 -17 -67 -32 -72 -32
-5 0 -116 137 -247 304 l-239 305 -213 63 -214 63 -91 135 c-80 120 -118 163
-336 382 l-246 247 -337 -166z m511 -120 c192 -178 216 -202 210 -208 -5 -4
-317 241 -364 286 -10 10 9 29 29 29 5 0 61 -48 125 -107z m1023 -846 c39 -43
68 -80 65 -84 -4 -3 -59 39 -124 93 -114 97 -116 99 -87 105 34 6 45 -2 146
-114z"/>
<path d="M5891 3773 c-1 -32 -10 -179 -20 -328 -10 -148 -18 -270 -17 -271 0
-1 62 -42 138 -92 109 -73 137 -88 142 -75 8 20 1 28 -110 119 -52 43 -94 85
-94 93 0 9 16 122 35 251 l34 234 -45 63 c-25 35 -49 63 -53 63 -4 0 -9 -26
-10 -57z"/>
<path d="M8457 3442 c-81 -180 -147 -331 -147 -336 0 -15 172 -286 181 -286 4
0 10 9 14 19 4 13 -15 61 -55 140 -33 66 -60 125 -60 129 0 5 23 51 51 103 28
51 87 161 130 242 l80 149 -18 84 c-9 46 -20 84 -23 84 -3 0 -71 -147 -153
-328z"/>
<path d="M6010 3629 c-1 -2 -13 -95 -29 -207 l-27 -202 23 -22 c13 -12 23 -19
23 -16 0 3 20 81 45 174 25 92 45 169 45 169 0 4 -80 108 -80 104z"/>
<path d="M8523 3315 c-57 -107 -103 -199 -103 -205 0 -6 5 -20 11 -31 13 -24
6 -32 139 163 l93 136 -13 66 c-7 36 -15 66 -19 66 -3 0 -52 -88 -108 -195z"/>
<path d="M6081 3424 c-33 -125 -61 -245 -61 -257 0 -8 6 -17 14 -20 10 -4 27
29 61 118 l47 123 -25 37 -26 38 -10 -39z"/>
<path d="M6132 3310 c-50 -137 -64 -182 -59 -195 12 -30 27 -14 72 75 l45 89
-24 28 -24 28 -10 -25z"/>
<path d="M8543 3170 c-59 -89 -91 -145 -87 -155 4 -9 10 -15 14 -13 4 2 49 52
99 112 84 100 91 112 85 140 -3 17 -9 36 -13 43 -3 6 -46 -48 -98 -127z"/>
<path d="M6165 3180 c-10 -19 -26 -48 -36 -66 -17 -31 -17 -33 0 -49 18 -15
20 -13 50 39 35 64 36 66 17 91 -13 18 -14 17 -31 -15z"/>
<path d="M8560 3070 c-85 -104 -83 -100 -70 -120 8 -12 25 0 90 66 l81 81 -13
32 -13 32 -75 -91z"/>
<path d="M8562 2967 c-41 -41 -50 -57 -45 -75 7 -28 8 -28 72 30 44 40 51 51
45 72 -3 14 -9 26 -13 26 -4 0 -30 -24 -59 -53z"/>
</g>
</svg>
